<?xml version="1.0" encoding="utf-8"?>
<svg version="1.1" xmlns="http://www.w3.org/2000/svg" xmlns:xlink="http://www.w3.org/1999/xlink" viewBox="0 0 47.4 34.4">
<path class="st0" d="M30.2,0C20.7,0,13,7.7,13,17.2c0,9.5,7.7,17.2,17.2,17.2c9.5,0,17.2-7.7,17.2-17.2C47.4,7.7,39.7,0,30.2,0z
	 M30.2,21.5c-2.4,0-4.3-1.9-4.3-4.3c0-2.4,1.9-4.3,4.3-4.3c2.4,0,4.3,1.9,4.3,4.3C34.5,19.6,32.5,21.5,30.2,21.5z M0,17.2
	c0-2.4,1.9-4.3,4.3-4.3c2.4,0,4.3,1.9,4.3,4.3c0,2.4-1.9,4.3-4.3,4.3C1.9,21.5,0,19.6,0,17.2"/>
</svg>
